name Walk8.mot
datacolumns 19
datarows 20
range 2.51400000 2.53300000
endheader

                time	   L_ground_force_vx	   L_ground_force_vy	   L_ground_force_vz	   L_ground_force_px	   L_ground_force_py	   L_ground_force_pz	   R_ground_force_vx	   R_ground_force_vy	   R_ground_force_vz	   R_ground_force_px	   R_ground_force_py	   R_ground_force_pz	   L_ground_torque_x	   L_ground_torque_y	   L_ground_torque_z	   R_ground_torque_x	   R_ground_torque_y	   R_ground_torque_z	
          2.51400000	         17.96796463	        744.16319623	         66.34474357	         -0.41636918	          0.00000000	         -0.09615233	         -0.02224206	          0.20715038	          0.02896480	          0.00003701	          0.00000000	          0.00010636	          0.00000000	          1.17660925	          0.00000000	          0.00000000	         -0.00390046	          0.00000000	
          2.51500000	         18.34786330	        744.91186012	         66.56591711	         -0.41599396	          0.00000000	         -0.09620202	         -0.02388387	          0.22030594	          0.03004109	          0.00003886	          0.00000000	          0.00011061	          0.00000000	          1.18743157	          0.00000000	          0.00000000	         -0.00396127	          0.00000000	
          2.51600000	         18.73047386	        745.66656047	         66.78778684	         -0.41561916	          0.00000000	         -0.09625165	         -0.02557962	          0.23377413	          0.03109333	          0.00004071	          0.00000000	          0.00011480	          0.00000000	          1.19794989	          0.00000000	          0.00000000	         -0.00401138	          0.00000000	
          2.51700000	         19.11585952	        746.42750035	         67.01017364	         -0.41524484	          0.00000000	         -0.09630118	         -0.02732729	          0.24752840	          0.03211494	          0.00004257	          0.00000000	          0.00011890	          0.00000000	          1.20814504	          0.00000000	          0.00000000	         -0.00404958	          0.00000000	
          2.51800000	         19.50408348	        747.19488347	         67.23289905	         -0.41487106	          0.00000000	         -0.09635060	         -0.02912452	          0.26153851	          0.03309885	          0.00004443	          0.00000000	          0.00012289	          0.00000000	          1.21799872	          0.00000000	          0.00000000	         -0.00407460	          0.00000000	
          2.51900000	         19.89520813	        747.96891243	         67.45578607	         -0.41449789	          0.00000000	         -0.09639986	         -0.03096846	          0.27577038	          0.03403750	          0.00004628	          0.00000000	          0.00012674	          0.00000000	          1.22749370	          0.00000000	          0.00000000	         -0.00408511	          0.00000000	
          2.52000000	         20.28929427	        748.74978743	         67.67865997	         -0.41412539	          0.00000000	         -0.09644893	         -0.03285586	          0.29018583	          0.03492279	          0.00004811	          0.00000000	          0.00013043	          0.00000000	          1.23661385	          0.00000000	          0.00000000	         -0.00407974	          0.00000000	
          2.52100000	         20.68640055	        749.53770559	         67.90134906	         -0.41375363	          0.00000000	         -0.09649776	         -0.03478296	          0.30474241	          0.03574613	          0.00004990	          0.00000000	          0.00013393	          0.00000000	          1.24534409	          0.00000000	          0.00000000	         -0.00405701	          0.00000000	
          2.52200000	         21.08658341	        750.33286046	         68.12368540	         -0.41338268	          0.00000000	         -0.09654631	         -0.03674547	          0.31939310	          0.03649834	          0.00005166	          0.00000000	          0.00013719	          0.00000000	          1.25367039	          0.00000000	          0.00000000	         -0.00401542	          0.00000000	
          2.52300000	         21.48989732	        751.13544180	         68.34550531	         -0.41301263	          0.00000000	         -0.09659454	         -0.03873860	          0.33408614	          0.03716972	          0.00005337	          0.00000000	          0.00014019	          0.00000000	          1.26157958	          0.00000000	          0.00000000	         -0.00395338	          0.00000000	
          2.52400000	         21.89639526	        751.94563550	         68.56664960	         -0.41264355	          0.00000000	         -0.09664237	         -0.04075696	          0.34876478	          0.03774998	          0.00005502	          0.00000000	          0.00014290	          0.00000000	          1.26905929	          0.00000000	          0.00000000	         -0.00386925	          0.00000000	
          2.52500000	         22.30612940	        752.76362354	         68.78696361	         -0.41227552	          0.00000000	         -0.09668978	         -0.04279455	          0.36336707	          0.03822825	          0.00005659	          0.00000000	          0.00014526	          0.00000000	          1.27609790	          0.00000000	          0.00000000	         -0.00376132	          0.00000000	
          2.52600000	         22.71915182	        753.58958406	         69.00629706	         -0.41190863	          0.00000000	         -0.09673669	         -0.04484474	          0.37782561	          0.03859309	          0.00005808	          0.00000000	          0.00014724	          0.00000000	          1.28268461	          0.00000000	          0.00000000	         -0.00362783	          0.00000000	
          2.52700000	         23.13551509	        754.42369167	         69.22450416	         -0.41154294	          0.00000000	         -0.09678307	         -0.04690024	          0.39206732	          0.03883245	          0.00005947	          0.00000000	          0.00014880	          0.00000000	          1.28880978	          0.00000000	          0.00000000	         -0.00346695	          0.00000000	
          2.52800000	         23.55527254	        755.26611788	         69.44144379	         -0.41117854	          0.00000000	         -0.09682885	         -0.04895306	          0.40601324	          0.03893367	          0.00006073	          0.00000000	          0.00014989	          0.00000000	          1.29446536	          0.00000000	          0.00000000	         -0.00327680	          0.00000000	
          2.52900000	         23.97847825	        756.11703171	         69.65698009	         -0.41081550	          0.00000000	         -0.09687399	         -0.05099447	          0.41957828	          0.03888351	          0.00006187	          0.00000000	          0.00015046	          0.00000000	          1.29964546	          0.00000000	          0.00000000	         -0.00305545	          0.00000000	
          2.53000000	         24.40518667	        756.97659986	         69.87098301	         -0.41045388	          0.00000000	         -0.09691843	         -0.05301496	          0.43267104	          0.03866810	          0.00006285	          0.00000000	          0.00015046	          0.00000000	          1.30434673	          0.00000000	          0.00000000	         -0.00280091	          0.00000000	
          2.53100000	         24.83545203	        757.84498582	         70.08332902	         -0.41009374	          0.00000000	         -0.09696213	         -0.05500427	          0.44519355	          0.03827298	          0.00006367	          0.00000000	          0.00014984	          0.00000000	          1.30856869	          0.00000000	          0.00000000	         -0.00251115	          0.00000000	
          2.53200000	         25.26932772	        758.72234753	         70.29390143	         -0.40973513	          0.00000000	         -0.09700505	         -0.05695127	          0.45704111	          0.03768308	          0.00006430	          0.00000000	          0.00014855	          0.00000000	          1.31231370	          0.00000000	          0.00000000	         -0.00218410	          0.00000000	
          2.53300000	         25.70686544	        759.60883359	         70.50259049	         -0.40937812	          0.00000000	         -0.09704715	         -0.05884399	          0.46810206	          0.03688274	          0.00006472	          0.00000000	          0.00014652	          0.00000000	          1.31558674	          0.00000000	          0.00000000	         -0.00181763	          0.00000000	
